<?xml version="1.0" encoding="utf-8"?>
<!-- Generator: Adobe Illustrator 22.0.1, SVG Export Plug-In . SVG Version: 6.00 Build 0)  -->
<svg version="1.1" xmlns="http://www.w3.org/2000/svg" xmlns:xlink="http://www.w3.org/1999/xlink" x="0px" y="0px"
	 viewBox="0 0 572.2 195.2" style="enable-background:new 0 0 572.2 195.2;" xml:space="preserve">
<style type="text/css">
	.st0{fill:#00ACDD;}
	.st1{fill:none;stroke:#00ACDD;stroke-width:11.7303;}
	.st2{fill:none;stroke:#00ACDD;stroke-width:3.9755;}
	.st3{display:none;}
	.st4{display:inline;}
</style>
<g id="svg11021" inkscape:version="0.92.3 (2405546, 2018-03-11)" sodipodi:docname="avro.svg" xmlns:cc="http://creativecommons.org/ns#" xmlns:dc="http://purl.org/dc/elements/1.1/" xmlns:inkscape="http://www.inkscape.org/namespaces/inkscape" xmlns:rdf="http://www.w3.org/1999/02/22-rdf-syntax-ns#" xmlns:sodipodi="http://sodipodi.sourceforge.net/DTD/sodipodi-0.dtd" xmlns:svg="http://www.w3.org/2000/svg">
	
		<sodipodi:namedview  bordercolor="#666666" borderopacity="1.0" fit-margin-bottom="0" fit-margin-left="0" fit-margin-right="0" fit-margin-top="0" id="base" inkscape:current-layer="g11645" inkscape:cx="473.59599" inkscape:cy="56.295276" inkscape:document-units="mm" inkscape:pageopacity="0.0" inkscape:pageshadow="2" inkscape:window-height="2049" inkscape:window-maximized="1" inkscape:window-width="3726" inkscape:window-x="114" inkscape:window-y="55" inkscape:zoom="3.7192858" pagecolor="#ffffff" showgrid="false">
		</sodipodi:namedview>
	<g id="layer1" transform="translate(-0.84381324,-103.61557)" inkscape:groupmode="layer" inkscape:label="Layer 1">
		<g id="g11645">
			<path id="path10963" inkscape:connector-curvature="0" class="st0" d="M1,104.7c0.4,9.9,8.6,17.7,16.8,22.4
				c25.2,13.8,54.4,16,82,21.5c13.1,2.7,26.6,4.7,39.1,9.6c3.5,1.6-1.4,0.3-2.9-0.2c-22.5-5.4-45.8-6.7-68.6-10.7
				c-13.9-2.3-27.5-6.5-40-13.1c-2.4-1.2-1.3-0.1-0.7,1.2c6.4,8.7,16,14.3,26.3,17.3c16.9,4.9,34.8,5.2,52.2,6.8
				c14.6,1.1,29.4,1.5,43.5,5.4c1.2,1,1.6,2.2-1,1.2c-22.4-4.4-45.4-3.1-68-4.2c-9-0.5-17.9-3.4-26.4-5.8c0.2,1.2,2.7,3,4.2,4.7
				c11.8,9.5,27.9,10,42.5,9.9c17.7-0.1,35.5-1.2,53.1,0.3c2.1,3.1-1.7,2.1-3.9,1.7c-16.6-1-33.1,0.9-49.6,1.8
				c-10.4,0.7-20.8-0.5-30.8-3.3c-2.1-0.1,0.8,2.2,1.7,3.2c8.6,8.4,21.8,8.3,33,7.2c13.8-0.9,27.4-3.5,41.1-4.5c3.4,0,6.8,0,10.2,0
				c0.9,3.5-3.8,1.4-5.8,2c-14.3,0.6-28.1,4.6-42.3,6.1c-8.2,1.3-16.6,0.6-24.6-1c-2.3-0.8-0.1,1.2,0.6,1.7
				c5.5,5.8,13.3,9.6,21.4,8.8c14.1,0.1,27-6.4,40.5-9.7c2.1-1.5,14.4-2.5,8,0c-14,3.5-27,10.5-41.4,12.7c-4,0.5-8.1,0.3-12.1,0.4
				c1.6,1.7,4.7,5.1,7.4,7.2c6.7,6.3,17.4,9.7,25.5,4.1c6.9-4.5,12.5-11.5,18.3-16.7c1.6-2,1.2,0.5-0.3,1.8
				c-4.1,6.2-9.7,11.6-12.6,18.5c-1.5,4.8-0.5,11.3,4,5.6c6.2-4.8,12.3-9.6,18.5-14.4c3.3-11.7,11.4-22.3,10.1-35
				c-0.6-9.7-9.1-16.6-17.6-19.9c-13.3-5.2-27.7-6.1-41.7-8.8c-27.5-4.8-55.6-7.6-82.1-17c-10.2-3.9-20.8-9.1-27.2-18.4L1,104.7
				L1,104.7z"/>
			<path id="path10989" inkscape:connector-curvature="0" class="st0" d="M573,104c-8.7,13.3-24.7,18.5-39.1,23
				c-27.8,7.9-56.7,10.8-85,15.9c-12.8,2.3-26.6,3.8-37.3,11.8c-9.3,7-9.5,20.4-5.5,30.4c2.4,6.4,5.5,12.6,7.6,19
				c7.4,5.8,14.9,11.6,22.3,17.4c3.5-8.4-4.3-15.2-8.5-21.5c-1.8-2.8-4.4-5.6-5.7-8.5c2.5,1.6,5.5,5.2,8.4,7.9
				c6.4,6.4,14.1,15.1,24.3,12.7c7.8-1.6,14.1-7.7,19.3-13c2-1.6-2-0.8-3.5-1c-12.6,0.4-24.5-5-36.3-9c-4.8-1.8-9.6-3.4-14.6-4.2
				c-1.2-3.3,4-0.5,5.8-0.7c14.9,3.3,29,10.1,44.4,10.7c8.4,0.1,17.7-3.6,22.6-10.3c2-1.7-5.2,1-6.5,0.7c-14.3,2-28.3-2.1-42.3-4
				c-8-1.4-16.2-2.1-24.3-2.3c-1-3.2,3.1-1.5,4.9-2c21,0.1,41.6,5.8,62.6,4.6c7-0.3,14.6-3.8,18.6-9.2c2-3.2-6.9,1.1-8.9,0.8
				c-25,4.4-50.2-3.3-75.3,0c-2.4-0.3,0.7-3.4,2.6-2.5c23.3-1.7,46.6,1.5,69.8-1.1c9.8-1.1,20.3-4.7,26.6-12.6c1.5-2.3-4.9,1-6.4,1
				c-27.2,7.7-55.9,1.3-83.3,7.4c-2,0.3-5,1.1-6.5,0.9c0.6-1.3,2.3-1.9,4.5-2.2c30.3-6.9,61.9-3.4,92-11.3
				c10.7-3.3,21.7-9.2,27.5-19c-4,1-9.7,4.8-14.5,6.1c-21.6,8.6-45.3,8.8-68,13c-10.8,1.3-21.6,3.2-32,6.1c1.4-1.4,4.8-1.8,7.1-2.9
				c15.7-4.8,32-7.2,48.1-10.2c24.1-4.4,49.3-7.8,70.6-20.8C566,120.4,572.8,113.1,573,104L573,104z"/>
			
				<path id="path11031" inkscape:flatsided="true" inkscape:randomized="0" inkscape:rounded="0" inkscape:transform-center-y="-9.2013771" sodipodi:arg1="-1.5707963" sodipodi:arg2="-0.52359878" sodipodi:cx="105.07738" sodipodi:cy="219.13689" sodipodi:r1="131.90231" sodipodi:r2="65.951157" sodipodi:sides="3" sodipodi:type="star" class="st1" d="
				M286.9,129.5L487.8,286H86L286.9,129.5z"/>
			<g id="text11601">
				<path id="path11603" inkscape:connector-curvature="0" class="st0" d="M199.3,282.4l-6.5-15h-29.2l-6.5,15h-16.5l30.1-69.7h15
					l30.1,69.7H199.3z M178.2,233.5l-8.8,20.2h17.4L178.2,233.5z"/>
				<path id="path11605" inkscape:connector-curvature="0" sodipodi:nodetypes="cccccccc" class="st0" d="M241.3,258.5l16.7-97.6
					l15.9-12.5l-26.4,134h-12.4l-26.4-85.7l15.9-10L241.3,258.5z"/>
				<path id="path11607" inkscape:connector-curvature="0" sodipodi:nodetypes="sccccccccscsscsssccs" class="st0" d="M334.9,198
					c0,20.2-4.2,33.3-12.5,39.2l16.6,45.2h-18l-14.6-40.3h-10.1v40.3h-14.6V136.6l24.9,5c10,2,17.5,17.9,21.8,24.5
					C332.7,172.7,334.9,183.3,334.9,198L334.9,198z M307,217.7c5,0,8.4-1.6,10.2-4.7c1.8-3.1,2.7-8.1,2.7-14.8
					c0-6.9-0.1-15.8-1.7-23.7c-1.2-5.9-1.2-8.3-10.9-13.7l-11-6v62.9H307z"/>
				<path id="path11609" inkscape:connector-curvature="0" class="st0" d="M405.1,245.6c0-6.5-2.1-12.1-6.2-16.6
					c-4.2-4.6-9.3-6.9-15.4-6.9c-6,0-11.1,2.3-15.3,6.9c-4.2,4.6-6.2,10.1-6.2,16.6c0,6.4,2.1,12,6.2,16.5c4.2,4.5,9.2,6.8,15.3,6.8
					c6.1,0,11.2-2.3,15.4-6.8C403,257.6,405.1,252.1,405.1,245.6z M410.6,272.3c-7.3,7.1-16.4,10.7-27.1,10.7
					c-10.7,0-19.8-3.6-27.1-10.7c-7.3-7.2-11-16.1-11-26.8s3.7-19.6,11-26.7c7.3-7.2,16.4-10.8,27.1-10.8c10.7,0,19.8,3.6,27.1,10.8
					c7.3,7.1,11,16,11,26.7C421.7,256.2,418,265.1,410.6,272.3z"/>
			</g>
			
				<path id="path11031-6" inkscape:flatsided="true" inkscape:randomized="0" inkscape:rounded="0" inkscape:transform-center-y="-11.126074" sodipodi:arg1="-1.5707963" sodipodi:arg2="-0.52359878" sodipodi:cx="105.07738" sodipodi:cy="219.13689" sodipodi:r1="131.90231" sodipodi:r2="65.951157" sodipodi:sides="3" sodipodi:type="star" class="st2" d="
				M286.9,107.7l242.9,189.2H44L286.9,107.7z"/>
			<g id="text11632">
				<path id="path11647" inkscape:connector-curvature="0" class="st0" d="M536.9,284.3v8.6h-1.7v-8.6H532v-1.6h7.9v1.6H536.9z"/>
				<path id="path11649" inkscape:connector-curvature="0" class="st0" d="M543.5,293h-1.7v-10.2h2.7l3.1,6.4l3.1-6.4h2.7V293h-1.7
					v-8l-3.6,7.1h-1l-3.6-7.1V293z"/>
			</g>
		</g>
	</g>
</g>
<g id="Layer_2" class="st3">
	<g id="_x36_Z8SK1.tif" class="st4">
		
			<image style="overflow:visible;" width="1600" height="878" id="Layer_0_1_" xlink:href="81F0FFD3FF65B8A3.png"  transform="matrix(1 0 0 1 -592 -215)">
		</image>
	</g>
</g>
</svg>
